<?xml version="1.0" encoding="UTF-8" standalone="no"?>
<!-- Created with Inkscape (http://www.inkscape.org/) -->

<svg
   xmlns:dc="http://purl.org/dc/elements/1.1/"
   xmlns:cc="http://creativecommons.org/ns#"
   xmlns:rdf="http://www.w3.org/1999/02/22-rdf-syntax-ns#"
   xmlns:svg="http://www.w3.org/2000/svg"
   xmlns="http://www.w3.org/2000/svg"
   xmlns:xlink="http://www.w3.org/1999/xlink"
   xmlns:sodipodi="http://sodipodi.sourceforge.net/DTD/sodipodi-0.dtd"
   xmlns:inkscape="http://www.inkscape.org/namespaces/inkscape"
   width="744.09448819"
   height="1052.3622047"
   id="svg2"
   sodipodi:version="0.32"
   inkscape:version="0.48.0 r9654"
   sodipodi:docname="padlock.svg"
   inkscape:output_extension="org.inkscape.output.svg.inkscape"
   version="1.1">
  <defs
     id="defs4">
    <linearGradient
       id="linearGradient3221">
      <stop
         style="stop-color:#11f011;stop-opacity:1;"
         offset="0"
         id="stop3223" />
      <stop
         style="stop-color:#3bb33b;stop-opacity:1;"
         offset="1"
         id="stop3225" />
    </linearGradient>
    <linearGradient
       id="linearGradient3201">
      <stop
         id="stop3203"
         offset="0"
         style="stop-color:#666b66;stop-opacity:1;" />
      <stop
         id="stop3205"
         offset="1"
         style="stop-color:#b2afb2;stop-opacity:1;" />
    </linearGradient>
    <inkscape:perspective
       sodipodi:type="inkscape:persp3d"
       inkscape:vp_x="0 : 526.18109 : 1"
       inkscape:vp_y="0 : 1000 : 0"
       inkscape:vp_z="744.09448 : 526.18109 : 1"
       inkscape:persp3d-origin="372.04724 : 350.78739 : 1"
       id="perspective10" />
    <linearGradient
       inkscape:collect="always"
       xlink:href="#linearGradient3201"
       id="linearGradient3199"
       x1="392.85938"
       y1="682.65625"
       x2="392.85938"
       y2="66.9375"
       gradientUnits="userSpaceOnUse"
       gradientTransform="translate(2487.9339,-1078.0919)" />
    <linearGradient
       inkscape:collect="always"
       xlink:href="#linearGradient3201"
       id="linearGradient3213"
       x1="392.85938"
       y1="682.65625"
       x2="392.85938"
       y2="66.9375"
       gradientUnits="userSpaceOnUse"
       gradientTransform="translate(2487.9339,-1078.0919)" />
    <linearGradient
       inkscape:collect="always"
       xlink:href="#linearGradient3221"
       id="linearGradient3217"
       gradientUnits="userSpaceOnUse"
       x1="392.85938"
       y1="682.65625"
       x2="392.85938"
       y2="66.9375"
       gradientTransform="translate(4217.3151,-1078.092)" />
    <linearGradient
       inkscape:collect="always"
       xlink:href="#linearGradient3221"
       id="linearGradient3219"
       gradientUnits="userSpaceOnUse"
       x1="392.85938"
       y1="682.65625"
       x2="392.85938"
       y2="66.9375"
       gradientTransform="translate(4217.3151,-1078.092)" />
    <linearGradient
       inkscape:collect="always"
       xlink:href="#linearGradient3201"
       id="linearGradient3229"
       gradientUnits="userSpaceOnUse"
       x1="392.85938"
       y1="682.65625"
       x2="392.85938"
       y2="66.9375"
       gradientTransform="translate(959.99775,188.99387)" />
    <linearGradient
       inkscape:collect="always"
       xlink:href="#linearGradient3201"
       id="linearGradient3231"
       gradientUnits="userSpaceOnUse"
       x1="392.85938"
       y1="682.65625"
       x2="392.85938"
       y2="66.9375"
       gradientTransform="translate(959.99775,188.99387)" />
    <linearGradient
       inkscape:collect="always"
       xlink:href="#linearGradient3201"
       id="linearGradient3237"
       gradientUnits="userSpaceOnUse"
       gradientTransform="translate(1032.4658,263.40279)"
       x1="392.85938"
       y1="682.65625"
       x2="392.85938"
       y2="66.9375" />
    <linearGradient
       inkscape:collect="always"
       xlink:href="#linearGradient3201"
       id="linearGradient3239"
       gradientUnits="userSpaceOnUse"
       gradientTransform="translate(1032.4658,263.40279)"
       x1="392.85938"
       y1="682.65625"
       x2="392.85938"
       y2="66.9375" />
    <linearGradient
       inkscape:collect="always"
       xlink:href="#linearGradient3201"
       id="linearGradient3248"
       x1="1425.3281"
       y1="943.25354"
       x2="1425.3281"
       y2="333.12143"
       gradientUnits="userSpaceOnUse"
       gradientTransform="translate(1481.7293,-1321.2795)" />
    <linearGradient
       inkscape:collect="always"
       xlink:href="#linearGradient3201"
       id="linearGradient3252"
       gradientUnits="userSpaceOnUse"
       x1="1425.3281"
       y1="943.25354"
       x2="1425.3281"
       y2="333.12143"
       gradientTransform="translate(-17.175454,2711.2615)" />
    <filter
       inkscape:collect="always"
       id="filter3302"
       x="-0.14110566"
       width="1.2822113"
       y="-0.13339656"
       height="1.2667931">
      <feGaussianBlur
         inkscape:collect="always"
         stdDeviation="67.813393"
         id="feGaussianBlur3304" />
    </filter>
    <linearGradient
       inkscape:collect="always"
       xlink:href="#linearGradient3201"
       id="linearGradient3308"
       gradientUnits="userSpaceOnUse"
       gradientTransform="translate(3211.1105,-1321.2795)"
       x1="1425.3281"
       y1="943.25354"
       x2="1425.3281"
       y2="333.12143" />
    <linearGradient
       inkscape:collect="always"
       xlink:href="#linearGradient3201-4"
       id="linearGradient3213-3"
       x1="392.85938"
       y1="682.65625"
       x2="392.85938"
       y2="66.9375"
       gradientUnits="userSpaceOnUse"
       gradientTransform="translate(2487.9339,-1078.0919)" />
    <linearGradient
       id="linearGradient3201-4">
      <stop
         id="stop3203-4"
         offset="0"
         style="stop-color:#666b66;stop-opacity:1;" />
      <stop
         id="stop3205-3"
         offset="1"
         style="stop-color:#b2afb2;stop-opacity:1;" />
    </linearGradient>
    <linearGradient
       inkscape:collect="always"
       xlink:href="#linearGradient3201-4"
       id="linearGradient3199-9"
       x1="392.85938"
       y1="682.65625"
       x2="392.85938"
       y2="66.9375"
       gradientUnits="userSpaceOnUse"
       gradientTransform="translate(2487.9339,-1078.0919)" />
    <linearGradient
       id="linearGradient3790">
      <stop
         id="stop3792"
         offset="0"
         style="stop-color:#666b66;stop-opacity:1;" />
      <stop
         id="stop3794"
         offset="1"
         style="stop-color:#b2afb2;stop-opacity:1;" />
    </linearGradient>
    <linearGradient
       y2="66.9375"
       x2="392.85938"
       y1="682.65625"
       x1="392.85938"
       gradientTransform="translate(972.86701,354.31651)"
       gradientUnits="userSpaceOnUse"
       id="linearGradient3797"
       xlink:href="#linearGradient3201-4"
       inkscape:collect="always" />
    <linearGradient
       y2="66.9375"
       x2="392.85938"
       y1="682.65625"
       x1="392.85938"
       gradientTransform="translate(972.86701,354.31651)"
       gradientUnits="userSpaceOnUse"
       id="linearGradient3799"
       xlink:href="#linearGradient3201-4"
       inkscape:collect="always" />
    <linearGradient
       inkscape:collect="always"
       xlink:href="#linearGradient3790"
       id="linearGradient3946"
       x1="2042.0404"
       y1="1035.1842"
       x2="2044.0363"
       y2="444.24496"
       gradientUnits="userSpaceOnUse"
       gradientTransform="translate(1224.3001,-29.289052)" />
    <linearGradient
       inkscape:collect="always"
       xlink:href="#linearGradient3790"
       id="linearGradient3954"
       x1="2042.0404"
       y1="1035.1842"
       x2="2044.0363"
       y2="444.24496"
       gradientUnits="userSpaceOnUse"
       gradientTransform="translate(1224.3001,-29.289052)" />
    <linearGradient
       inkscape:collect="always"
       xlink:href="#linearGradient3790-8"
       id="linearGradient3954-1"
       x1="2042.0404"
       y1="1035.1842"
       x2="2044.0363"
       y2="444.24496"
       gradientUnits="userSpaceOnUse" />
    <linearGradient
       id="linearGradient3790-8">
      <stop
         id="stop3792-0"
         offset="0"
         style="stop-color:#666b66;stop-opacity:1;" />
      <stop
         id="stop3794-6"
         offset="1"
         style="stop-color:#b2afb2;stop-opacity:1;" />
    </linearGradient>
    <linearGradient
       inkscape:collect="always"
       xlink:href="#linearGradient3790-8"
       id="linearGradient3946-6"
       x1="2042.0404"
       y1="1035.1842"
       x2="2044.0363"
       y2="444.24496"
       gradientUnits="userSpaceOnUse" />
    <linearGradient
       id="linearGradient3971">
      <stop
         id="stop3973"
         offset="0"
         style="stop-color:#666b66;stop-opacity:1;" />
      <stop
         id="stop3975"
         offset="1"
         style="stop-color:#b2afb2;stop-opacity:1;" />
    </linearGradient>
    <linearGradient
       gradientTransform="translate(776.80993,-29.282186)"
       y2="444.24496"
       x2="2044.0363"
       y1="1035.1842"
       x1="2042.0404"
       gradientUnits="userSpaceOnUse"
       id="linearGradient3978"
       xlink:href="#linearGradient3790-8"
       inkscape:collect="always" />
    <linearGradient
       gradientTransform="translate(776.80993,-29.282186)"
       y2="444.24496"
       x2="2044.0363"
       y1="1035.1842"
       x1="2042.0404"
       gradientUnits="userSpaceOnUse"
       id="linearGradient3980"
       xlink:href="#linearGradient3790-8"
       inkscape:collect="always" />
    <linearGradient
       inkscape:collect="always"
       xlink:href="#linearGradient3971"
       id="linearGradient4044"
       x1="2820.8523"
       y1="1005.902"
       x2="2815.8135"
       y2="432.13541"
       gradientUnits="userSpaceOnUse"
       gradientTransform="translate(6,6)" />
    <filter
       inkscape:collect="always"
       id="filter4082">
      <feGaussianBlur
         inkscape:collect="always"
         stdDeviation="24.097152"
         id="feGaussianBlur4084" />
    </filter>
    <linearGradient
       gradientTransform="translate(776.80993,-29.282186)"
       y2="444.24496"
       x2="2044.0363"
       y1="1035.1842"
       x1="2042.0404"
       gradientUnits="userSpaceOnUse"
       id="linearGradient3978-9"
       xlink:href="#linearGradient3790-8-0"
       inkscape:collect="always" />
    <linearGradient
       id="linearGradient3790-8-0">
      <stop
         id="stop3792-0-7"
         offset="0"
         style="stop-color:#666b66;stop-opacity:1;" />
      <stop
         id="stop3794-6-8"
         offset="1"
         style="stop-color:#b2afb2;stop-opacity:1;" />
    </linearGradient>
    <linearGradient
       gradientTransform="translate(776.80993,-29.282186)"
       y2="444.24496"
       x2="2044.0363"
       y1="1035.1842"
       x1="2042.0404"
       gradientUnits="userSpaceOnUse"
       id="linearGradient3980-3"
       xlink:href="#linearGradient3790-8-0"
       inkscape:collect="always" />
    <linearGradient
       id="linearGradient4101">
      <stop
         id="stop4103"
         offset="0"
         style="stop-color:#666b66;stop-opacity:1;" />
      <stop
         id="stop4105"
         offset="1"
         style="stop-color:#b2afb2;stop-opacity:1;" />
    </linearGradient>
    <linearGradient
       inkscape:collect="always"
       xlink:href="#linearGradient3971-4"
       id="linearGradient4044-6"
       x1="2820.8523"
       y1="1005.902"
       x2="2815.8135"
       y2="432.13541"
       gradientUnits="userSpaceOnUse"
       gradientTransform="translate(2564.77,2.0134099)" />
    <linearGradient
       id="linearGradient3971-4">
      <stop
         id="stop3973-3"
         offset="0"
         style="stop-color:#666b66;stop-opacity:1;" />
      <stop
         id="stop3975-9"
         offset="1"
         style="stop-color:#b2afb2;stop-opacity:1;" />
    </linearGradient>
    <filter
       color-interpolation-filters="sRGB"
       inkscape:collect="always"
       id="filter4082-3">
      <feGaussianBlur
         inkscape:collect="always"
         stdDeviation="24.097152"
         id="feGaussianBlur4084-1" />
    </filter>
    <linearGradient
       y2="444.24496"
       x2="2044.0363"
       y1="1035.1842"
       x1="2042.0404"
       gradientTransform="translate(3335.5799,-33.26878)"
       gradientUnits="userSpaceOnUse"
       id="linearGradient4115"
       xlink:href="#linearGradient3221"
       inkscape:collect="always" />
    <linearGradient
       y2="444.24496"
       x2="2044.0363"
       y1="1035.1842"
       x1="2042.0404"
       gradientTransform="translate(3335.5799,-33.26878)"
       gradientUnits="userSpaceOnUse"
       id="linearGradient4117"
       xlink:href="#linearGradient3221"
       inkscape:collect="always" />
  </defs>
  <sodipodi:namedview
     id="base"
     pagecolor="#ffffff"
     bordercolor="#666666"
     borderopacity="1.0"
     gridtolerance="10000"
     guidetolerance="10"
     objecttolerance="10"
     inkscape:pageopacity="0.0"
     inkscape:pageshadow="2"
     inkscape:zoom="0.35"
     inkscape:cx="4423.4335"
     inkscape:cy="678.14372"
     inkscape:document-units="px"
     inkscape:current-layer="layer1"
     showgrid="false"
     inkscape:window-width="1680"
     inkscape:window-height="973"
     inkscape:window-x="1280"
     inkscape:window-y="24"
     inkscape:window-maximized="1" />
  <metadata
     id="metadata7">
    <rdf:RDF>
      <cc:Work
         rdf:about="">
        <dc:format>image/svg+xml</dc:format>
        <dc:type
           rdf:resource="http://purl.org/dc/dcmitype/StillImage" />
      </cc:Work>
    </rdf:RDF>
  </metadata>
  <g
     inkscape:label="Layer 1"
     inkscape:groupmode="layer"
     id="layer1">
    <path
       style="fill:url(#linearGradient4115);fill-opacity:1.0;fill-rule:evenodd;stroke:url(#linearGradient4117);stroke-width:1.71559346000000001px;stroke-linecap:butt;stroke-linejoin:miter;stroke-opacity:1"
       d="m 5089.5744,412.32456 0,589.25264 589.1991,0 0,-589.25264 -589.1991,0 z m 112.8539,59.34881 c 34.456,0 62.4048,27.94854 62.4048,62.40471 -2e-4,34.45617 -27.9488,62.3511 -62.4048,62.3511 -34.4565,0 -62.4047,-27.89493 -62.4047,-62.3511 0,-34.45617 27.9482,-62.40471 62.4047,-62.40471 z m 363.4914,0 c 34.4562,0 62.4047,27.94854 62.4047,62.40471 0,34.45617 -27.9485,62.3511 -62.4047,62.3511 -34.4565,0 -62.4047,-27.89493 -62.4047,-62.3511 0,-34.45617 27.9482,-62.40471 62.4047,-62.40471 z m -181.7458,172.89965 c 34.4564,0 62.4047,27.89494 62.4047,62.3511 0,34.45617 -27.9483,62.40471 -62.4047,62.40471 -34.4562,0 -62.4048,-27.94854 -62.4048,-62.40471 0,-34.45616 27.9486,-62.3511 62.4048,-62.3511 z m -181.7456,172.84604 c 34.456,0 62.4048,27.89494 62.4048,62.3511 -2e-4,34.45617 -27.9488,62.40472 -62.4048,62.40472 -34.4565,0 -62.4047,-27.94855 -62.4047,-62.40472 0,-34.45616 27.9482,-62.3511 62.4047,-62.3511 z m 363.4914,0 c 34.4562,0 62.4047,27.89494 62.4047,62.3511 0,34.45617 -27.9485,62.40472 -62.4047,62.40472 -34.4565,0 -62.4047,-27.94855 -62.4047,-62.40472 0,-34.45616 27.9482,-62.3511 62.4047,-62.3511 z"
       id="rect3828-2-6-4"
       inkscape:connector-curvature="0" />
    <path
       style="fill:url(#linearGradient3213);fill-opacity:1;stroke:url(#linearGradient3199);stroke-width:20;stroke-linejoin:round;stroke-miterlimit:4;stroke-dasharray:none;stroke-opacity:1"
       d="M 2880.7776,-1001.1544 C 2772.7434,-1001.1544 2685.0902,-913.46997 2685.0902,-805.43568 L 2685.1214,-805.43568 L 2685.1214,-723.18568 L 2604.7777,-723.18568 L 2604.7777,-405.43568 L 3156.8089,-405.43568 L 3156.8089,-723.18568 L 3076.4651,-723.18568 L 3076.4651,-805.43568 L 3076.4964,-805.43568 C 3076.4964,-805.8838 3076.4682,-806.33202 3076.4651,-806.77943 C 3075.7419,-914.19632 2988.3638,-1001.1544 2880.7776,-1001.1544 z M 2880.7776,-938.31068 C 2954.1148,-938.31068 3013.6527,-878.77282 3013.6527,-805.43568 L 3013.6839,-805.43568 L 3013.6839,-723.18568 L 2747.9027,-723.18568 L 2747.9027,-805.43568 L 2747.9339,-805.43568 C 2747.934,-878.77283 2807.4405,-938.31068 2880.7776,-938.31068 z"
       id="rect2383" />
    <path
       style="fill:url(#linearGradient3217);fill-opacity:1.0;stroke:url(#linearGradient3219);stroke-width:20;stroke-linejoin:round;stroke-miterlimit:4;stroke-dasharray:none;stroke-opacity:1"
       d="M 4610.1589,-1001.1545 C 4502.1246,-1001.1545 4414.4714,-913.46997 4414.4714,-805.43556 L 4414.5026,-805.43556 L 4414.5026,-723.18557 L 4334.1589,-723.18557 L 4334.1589,-405.43562 L 4886.1901,-405.43562 L 4886.1901,-723.18557 L 4805.8464,-723.18557 L 4805.8464,-805.43556 L 4805.8776,-805.43556 C 4805.8776,-805.88377 4805.8494,-806.33207 4805.8464,-806.77947 C 4805.1231,-914.19637 4717.745,-1001.1545 4610.1589,-1001.1545 z M 4610.1589,-938.31067 C 4683.496,-938.31067 4743.0339,-878.77287 4743.0339,-805.43556 L 4743.0651,-805.43556 L 4743.0651,-723.18557 L 4477.2839,-723.18557 L 4477.2839,-805.43556 L 4477.3151,-805.43556 C 4477.3151,-878.77287 4536.8217,-938.31067 4610.1589,-938.31067 z"
       id="path3215" />
    <path
       style="fill:#000000;fill-opacity:1;stroke:#ffffff;stroke-width:20;stroke-linejoin:round;stroke-miterlimit:4;stroke-dasharray:none;stroke-opacity:1"
       d="M 873.77439,-1329.5782 L 873.77439,-129.51563 L 2007.1806,-129.51563 L 2007.1806,-1329.5782 L 873.77439,-1329.5782 z M 1440.4619,-1027.3907 C 1548.048,-1027.3907 1635.4263,-940.43255 1636.1494,-833.01568 C 1636.1524,-832.56827 1636.1806,-832.12003 1636.1806,-831.67193 L 1636.1494,-831.67193 L 1636.1494,-749.42193 L 1716.4932,-749.42193 L 1716.4932,-431.67193 L 1164.4619,-431.67193 L 1164.4619,-749.42193 L 1244.8056,-749.42193 L 1244.8056,-831.67193 L 1244.7744,-831.67193 C 1244.7744,-939.70622 1332.4277,-1027.3907 1440.4619,-1027.3907 z M 1440.4619,-964.54693 C 1367.1248,-964.54693 1307.6181,-905.00906 1307.6182,-831.67193 L 1307.5869,-831.67193 L 1307.5869,-749.42193 L 1573.3682,-749.42193 L 1573.3682,-831.67193 L 1573.3369,-831.67193 C 1573.3369,-905.00907 1513.7992,-964.54694 1440.4619,-964.54693 z"
       id="path3254" />
    <path
       style="fill:#000000;fill-opacity:0.65;stroke:url(#linearGradient3248);stroke-width:20;stroke-linejoin:round;stroke-miterlimit:4;stroke-dasharray:none;stroke-opacity:1;filter:url(#filter3302)"
       d="M 2340.3543,-1283.1233 L 2340.3543,-83.06076 L 3473.7603,-83.06076 L 3473.7603,-1283.1233 L 2340.3543,-1283.1233 z M 2907.0416,-980.93573 C 3014.6277,-980.93572 3102.006,-893.9776 3102.7291,-786.56073 C 3102.7321,-786.11332 3102.7603,-785.66508 3102.7603,-785.21698 L 3102.7291,-785.21698 L 3102.7291,-702.96698 L 3183.0729,-702.96698 L 3183.0729,-385.21698 L 2631.0418,-385.21698 L 2631.0418,-702.96698 L 2711.3854,-702.96698 L 2711.3854,-785.21698 L 2711.3543,-785.21698 C 2711.3543,-893.25127 2799.0075,-980.93575 2907.0416,-980.93573 z M 2907.0416,-918.09198 C 2833.7046,-918.09198 2774.198,-858.55411 2774.1981,-785.21698 L 2774.1668,-785.21698 L 2774.1668,-702.96698 L 3039.9479,-702.96698 L 3039.9479,-785.21698 L 3039.9166,-785.21698 C 3039.9166,-858.55412 2980.3789,-918.09199 2907.0416,-918.09198 z"
       id="rect3235" />
    <path
       style="fill:#000000;fill-opacity:0.65;stroke:url(#linearGradient3308);stroke-width:20;stroke-linejoin:round;stroke-miterlimit:4;stroke-dasharray:none;stroke-opacity:1;filter:url(#filter3302)"
       d="M 4069.7355,-1283.1233 L 4069.7355,-83.06076 L 5203.1415,-83.06076 L 5203.1415,-1283.1233 L 4069.7355,-1283.1233 z M 4636.4228,-980.93569 C 4744.0089,-980.93568 4831.3872,-893.97756 4832.1103,-786.56066 C 4832.1133,-786.11326 4832.1415,-785.66506 4832.1415,-785.21696 L 4832.1103,-785.21696 L 4832.1103,-702.96696 L 4912.4541,-702.96696 L 4912.4541,-385.21696 L 4360.423,-385.21696 L 4360.423,-702.96696 L 4440.7666,-702.96696 L 4440.7666,-785.21696 L 4440.7355,-785.21696 C 4440.7355,-893.25123 4528.3887,-980.93571 4636.4228,-980.93569 z M 4636.4228,-918.09194 C 4563.0858,-918.09194 4503.5792,-858.55406 4503.5793,-785.21696 L 4503.548,-785.21696 L 4503.548,-702.96696 L 4769.3291,-702.96696 L 4769.3291,-785.21696 L 4769.2978,-785.21696 C 4769.2978,-858.55406 4709.7601,-918.09195 4636.4228,-918.09194 z"
       id="path3306" />
    <path
       inkscape:connector-curvature="0"
       style="fill:url(#linearGradient3797);fill-opacity:1;stroke:url(#linearGradient3799);stroke-width:20;stroke-linejoin:round;stroke-miterlimit:4;stroke-opacity:1;stroke-dasharray:none"
       d="m 1365.7107,431.25401 c -108.0342,0 -195.6874,87.68443 -195.6874,195.71872 l 0.031,0 0,82.25 -80.3437,0 0,317.74997 552.0312,0 0,-317.74997 -80.3438,0 0,-82.25 0.031,0 c 0,-0.44812 -0.028,-0.89634 -0.031,-1.34375 -0.7232,-107.41689 -88.1013,-194.37497 -195.6875,-194.37497 z m 0,62.84372 c 73.3372,0 132.8751,59.53786 132.8751,132.875 l 0.031,0 0,82.25 -265.7812,0 0,-82.25 0.031,0 c 10e-5,-73.33715 59.5066,-132.875 132.8437,-132.875 z"
       id="rect2383-7" />
    <path
       style="fill:url(#linearGradient3978);fill-opacity:1;fill-rule:evenodd;stroke:url(#linearGradient3980);stroke-width:1.71559346px;stroke-linecap:butt;stroke-linejoin:miter;stroke-opacity:1"
       d="m 2530.8044,416.31115 0,589.25265 589.1991,0 0,-589.25265 -589.1991,0 z m 112.8539,59.34881 c 34.456,0 62.4048,27.94854 62.4048,62.40471 -2e-4,34.45617 -27.9488,62.3511 -62.4048,62.3511 -34.4565,0 -62.4047,-27.89493 -62.4047,-62.3511 0,-34.45617 27.9482,-62.40471 62.4047,-62.40471 z m 363.4914,0 c 34.4562,0 62.4047,27.94854 62.4047,62.40471 0,34.45617 -27.9485,62.3511 -62.4047,62.3511 -34.4565,0 -62.4047,-27.89493 -62.4047,-62.3511 0,-34.45617 27.9482,-62.40471 62.4047,-62.40471 z m -181.7458,172.89965 c 34.4564,0 62.4047,27.89494 62.4047,62.3511 0,34.45617 -27.9483,62.40471 -62.4047,62.40471 -34.4562,0 -62.4048,-27.94854 -62.4048,-62.40471 0,-34.45616 27.9486,-62.3511 62.4048,-62.3511 z m -181.7456,172.84604 c 34.456,0 62.4048,27.89494 62.4048,62.3511 -2e-4,34.45617 -27.9488,62.40472 -62.4048,62.40472 -34.4565,0 -62.4047,-27.94855 -62.4047,-62.40472 0,-34.45616 27.9482,-62.3511 62.4047,-62.3511 z m 363.4914,0 c 34.4562,0 62.4047,27.89494 62.4047,62.3511 0,34.45617 -27.9485,62.40472 -62.4047,62.40472 -34.4565,0 -62.4047,-27.94855 -62.4047,-62.40472 0,-34.45616 27.9482,-62.3511 62.4047,-62.3511 z"
       id="rect3828-2-6"
       inkscape:connector-curvature="0" />
    <path
       inkscape:connector-curvature="0"
       style="fill:#000000;fill-rule:evenodd;stroke:#000000;stroke-width:1px;stroke-linecap:butt;stroke-linejoin:miter;stroke-opacity:1;fill-opacity:1"
       d="m 3840.5889,155.35258 0,1070.75002 921.2812,0 0,-1070.75002 -921.2812,0 z m 166.0312,240.74999 589.2188,0 0,589.25001 -589.2188,0 0,-589.25001 z m 112.875,59.34376 c -34.4565,0 -62.4062,27.95008 -62.4062,62.40625 0,34.45617 27.9498,62.34375 62.4062,62.34375 34.456,0 62.4061,-27.88758 62.4063,-62.34375 0,-34.45617 -27.9502,-62.40625 -62.4063,-62.40625 z m 363.4688,0 c -34.4565,0 -62.375,27.95008 -62.375,62.40625 0,34.45617 27.9185,62.34375 62.375,62.34375 34.4562,0 62.4062,-27.88758 62.4062,-62.34375 0,-34.45617 -27.95,-62.40625 -62.4062,-62.40625 z m -181.7188,172.90625 c -34.4562,0 -62.4062,27.88759 -62.4062,62.34375 0,34.45617 27.95,62.40625 62.4062,62.40625 34.4564,0 62.4063,-27.95008 62.4063,-62.40625 0,-34.45616 -27.9498,-62.34375 -62.4063,-62.34375 z m -181.75,172.84375 c -34.4565,0 -62.4062,27.88759 -62.4062,62.34375 0,34.45617 27.9498,62.40625 62.4062,62.40625 34.456,0 62.4061,-27.95008 62.4063,-62.40625 0,-34.45616 -27.9502,-62.34375 -62.4063,-62.34375 z m 363.4688,0 c -34.4565,0 -62.375,27.88759 -62.375,62.34375 0,34.45617 27.9185,62.40625 62.375,62.40625 34.4562,0 62.4062,-27.95008 62.4062,-62.40625 0,-34.45616 -27.95,-62.34375 -62.4062,-62.34375 z"
       id="rect4009-7" />
    <path
       style="fill:#000000;fill-opacity:0.66818183;fill-rule:evenodd;stroke:url(#linearGradient4044);stroke-width:1px;stroke-linecap:butt;stroke-linejoin:miter;stroke-opacity:1;filter:url(#filter4082)"
       d="m 2370.7634,181.5625 0,1070.75 921.2812,0 0,-1070.75 -921.2812,0 z m 166.0312,240.75 589.2188,0 0,589.25 -589.2188,0 0,-589.25 z m 112.875,59.34375 c -34.4565,0 -62.4062,27.95008 -62.4062,62.40625 0,34.45617 27.9498,62.34375 62.4062,62.34375 34.456,0 62.4061,-27.88758 62.4063,-62.34375 0,-34.45617 -27.9502,-62.40625 -62.4063,-62.40625 z m 363.4688,0 c -34.4565,0 -62.375,27.95008 -62.375,62.40625 0,34.45617 27.9185,62.34375 62.375,62.34375 34.4562,0 62.4062,-27.88758 62.4062,-62.34375 0,-34.45617 -27.95,-62.40625 -62.4062,-62.40625 z M 2831.4196,654.5625 c -34.4562,0 -62.4062,27.88759 -62.4062,62.34375 0,34.45617 27.95,62.40625 62.4062,62.40625 34.4564,0 62.4063,-27.95008 62.4063,-62.40625 0,-34.45616 -27.9498,-62.34375 -62.4063,-62.34375 z m -181.75,172.84375 c -34.4565,0 -62.4062,27.88759 -62.4062,62.34375 0,34.45617 27.9498,62.40625 62.4062,62.40625 34.456,0 62.4061,-27.95008 62.4063,-62.40625 0,-34.45616 -27.9502,-62.34375 -62.4063,-62.34375 z m 363.4688,0 c -34.4565,0 -62.375,27.88759 -62.375,62.34375 0,34.45617 27.9185,62.40625 62.375,62.40625 34.4562,0 62.4062,-27.95008 62.4062,-62.40625 0,-34.45616 -27.95,-62.34375 -62.4062,-62.34375 z"
       id="rect4009"
       inkscape:connector-curvature="0" />
    <path
       style="fill:#000000;fill-opacity:0.66818183;fill-rule:evenodd;stroke:url(#linearGradient4044-6);stroke-width:1px;stroke-linecap:butt;stroke-linejoin:miter;stroke-opacity:1;filter:url(#filter4082-3)"
       d="m 4929.5334,177.57591 0,1070.75009 921.2812,0 0,-1070.75009 -921.2812,0 z m 166.0312,240.75 589.2188,0 0,589.24999 -589.2188,0 0,-589.24999 z m 112.875,59.34375 c -34.4565,0 -62.4062,27.95008 -62.4062,62.40625 0,34.45617 27.9498,62.34375 62.4062,62.34375 34.456,0 62.4061,-27.88758 62.4063,-62.34375 0,-34.45617 -27.9502,-62.40625 -62.4063,-62.40625 z m 363.4688,0 c -34.4565,0 -62.375,27.95008 -62.375,62.40625 0,34.45617 27.9185,62.34375 62.375,62.34375 34.4562,0 62.4062,-27.88758 62.4062,-62.34375 0,-34.45617 -27.95,-62.40625 -62.4062,-62.40625 z m -181.7188,172.90625 c -34.4562,0 -62.4062,27.88759 -62.4062,62.34375 0,34.45617 27.95,62.40625 62.4062,62.40625 34.4564,0 62.4063,-27.95008 62.4063,-62.40625 0,-34.45616 -27.9498,-62.34375 -62.4063,-62.34375 z m -181.75,172.84375 c -34.4565,0 -62.4062,27.88759 -62.4062,62.34375 0,34.45617 27.9498,62.40625 62.4062,62.40625 34.456,0 62.4061,-27.95008 62.4063,-62.40625 0,-34.45616 -27.9502,-62.34375 -62.4063,-62.34375 z m 363.4688,0 c -34.4565,0 -62.375,27.88759 -62.375,62.34375 0,34.45617 27.9185,62.40625 62.375,62.40625 34.4562,0 62.4062,-27.95008 62.4062,-62.40625 0,-34.45616 -27.95,-62.34375 -62.4062,-62.34375 z"
       id="rect4009-4"
       inkscape:connector-curvature="0" />
  </g>
</svg>
